# xmcd CD database file
#
# Track frame offsets:
#	150
#	14365
#	22725
#	45330
#	58610
#	94215
#	138930
#	166330
#	187185
#
# Disc length: 2673 seconds
#
# Revision: 0
# Processed by: cddbd v1.5PL3 Copyright (c) Steve Scherf et al.
# Submitted via: CDex 1.50
#
DISCID=6b0a6f09
DTITLE=New Trolls - UT
DYEAR=1900
DGENRE=Progressive Rock
TTITLE0=Studio
TTITLE1=XXII Strada
TTITLE2=I Cavalieri Del Lago Dell' Ontario
TTITLE3=Storia Di Una Foglia
TTITLE4=Nato Adeso
TTITLE5=C'E' Troppa Guerra
TTITLE6=Paolo E Francesca
TTITLE7=Chi Mi Puo' Capire
TTITLE8=Visioni
EXTD=
EXTT0=
EXTT1=
EXTT2=
EXTT3=
EXTT4=
EXTT5=
EXTT6=
EXTT7=
EXTT8=
PLAYORDER=
